<svg xmlns="http://www.w3.org/2000/svg" viewBox="0 0 900 640" width="900" height="640">
  <g fill="none" stroke="currentColor" stroke-width="3" stroke-linecap="round" stroke-linejoin="round">

    <!-- ===== Board, stretched off the upper-left (open end) ===== -->
    <!-- right edge (near corner B -> right corner R) -->
    <path d="M430 470 L761 284"/>
    <!-- far edge, extended through F off the top; middle hidden behind the blade -->
    <path d="M761 284 L571 177"/>
    <path d="M450 109 L256 0"/>
    <!-- near-left edge, extended through L off the left -->
    <path d="M430 470 L0 228"/>
    <!-- thickness: near verticals + bottom edges -->
    <path d="M430 470 L430 496"/>
    <path d="M761 284 L761 310"/>
    <path d="M430 496 L761 310"/>
    <path d="M430 496 L0 254"/>

    <!-- ===== Paddle standing vertically on the board (handle down, forehand facing you) ===== -->
    <path d="M473 282 L473 340 Q473 350 483 350 L497 350 Q507 350 507 340 L507 282"
          stroke-width="3"/>
    <ellipse cx="490" cy="190" rx="82" ry="92" stroke-width="3.5"/>
    <!-- up arrow: tip points up -->
    <g stroke-width="2.5">
      <path d="M610 335 L610 240"/>
      <polyline points="598,262 610,238 622,262"/>
    </g>

  </g>
</svg>
